<?xml version="1.0" standalone="no"?>
<!DOCTYPE svg PUBLIC "-//W3C//DTD SVG 20010904//EN"
 "http://www.w3.org/TR/2001/REC-SVG-20010904/DTD/svg10.dtd">
<svg version="1.0" xmlns="http://www.w3.org/2000/svg"
 width="32.000000pt" height="32.000000pt" viewBox="0 0 32.000000 32.000000"
 preserveAspectRatio="xMidYMid meet">

<g transform="translate(0.000000,32.000000) scale(0.100000,-0.100000)"
fill="#000000" stroke="none">
<path d="M0 160 l0 -160 160 0 160 0 0 160 0 160 -160 0 -160 0 0 -160z m215
90 c-11 -12 -15 -28 -12 -42 6 -23 6 -23 -9 -3 -15 19 -16 19 -29 2 -7 -10
-16 -14 -19 -9 -3 5 1 15 9 22 13 11 13 14 -2 27 -16 13 -15 13 14 8 18 -4 34
-2 38 4 3 6 11 11 17 11 6 0 3 -9 -7 -20z"/>
</g>
</svg>
